# xmcd
#
# Track frame offsets:
#	150
#	11459
#	32617
#	50094
#	71322
#	87899
#	106811
#	122550
#
# Disc length: 1907 seconds
#
# Revision: 0
# Processed by: cddbd v1.5.2PL0 Copyright (c) Steve Scherf et al.
# Submitted via: EasyCDDAExtractor 16.0.6.1
#
DISCID=59077108
DTITLE=Various Artist - Όλα Σ'αγαπάνε
DYEAR=2005
DGENRE=Love
TTITLE0=Γονίδης Σταμάτης - Όλα Σ'αγαπάνε
TTITLE1=Ρήγα Βάσια - Δεν Είναι Εσύ
TTITLE2=Πανταζής Λευτέρης - Είναι Η Αγάπη Ιερό
TTITLE3=Κουταλίδου Ιωάννα - Θα Ραγίζουν Οι Καρδιές
TTITLE4=4play - Σ'αγαπώ
TTITLE5=Ζώη Αποστολία - Αργά Ή Γρήγορα
TTITLE6=Αδαμαντίδης Θέμης - Γεννηθηκα Να Σ'αγαπώ
TTITLE7=Παλιουδάκης Ηλίας - Σάγαπάω, Μ' Ακους
EXTD=
EXTT0=
EXTT1=
EXTT2=
EXTT3=
EXTT4=
EXTT5=
EXTT6=
EXTT7=
PLAYORDER=
